<svg xmlns="http://www.w3.org/2000/svg" viewBox="0 0 48 48" role="img" aria-label="Zalo">
  <circle cx="24" cy="24" r="24" fill="#0068FF"/>
  <path fill="#fff" d="M12.5 16.8c0-2.65 2.15-4.8 4.8-4.8h13.4c2.65 0 4.8 2.15 4.8 4.8v7.2c0 2.65-2.15 4.8-4.8 4.8H26l-6.2 3.6V28.8h-2.5c-2.65 0-4.8-2.15-4.8-4.8v-7.2z"/>
  <path fill="#0068FF" d="M16.2 19.8h2.05l1.35 3.65 1.35-3.65h1.95l-2.3 6.05h-1.85L16.2 19.8zm7.55 0h3.7c1.05 0 1.9.85 1.9 1.9 0 .75-.44 1.4-1.08 1.72.78.28 1.33 1.03 1.33 1.9 0 1.15-.93 2.08-2.08 2.08h-3.77V19.8zm1.75 3.05h1.45c.42 0 .75-.33.75-.75s-.33-.75-.75-.75h-1.45v1.5zm0 2.85h1.55c.55 0 1-.45 1-1s-.45-1-1-1h-1.55v2zm5.35-5.9h2.75c1.55 0 2.8 1.25 2.8 2.8s-1.25 2.8-2.8 2.8h-2.75V19.8zm1.75 4.15h1c.65 0 1.15-.5 1.15-1.15s-.5-1.15-1.15-1.15h-1v2.3z"/>
</svg>
